<mxfile host="app.diagrams.net" modified="2023-07-09T06:43:19.692Z" agent="Mozilla/5.0 (Windows NT 10.0; Win64; x64) AppleWebKit/537.36 (KHTML, like Gecko) Chrome/114.0.0.0 Safari/537.36" etag="R__tZkPD4sfS5PIdptSj" version="21.6.1" type="github">
  <diagram name="Page-1" id="2YBvvXClWsGukQMizWep">
    <mxGraphModel dx="1615" dy="888" grid="1" gridSize="10" guides="1" tooltips="1" connect="1" arrows="1" fold="1" page="1" pageScale="1" pageWidth="850" pageHeight="1100" math="0" shadow="0">
      <root>
        <mxCell id="0" />
        <mxCell id="1" parent="0" />
        <mxCell id="uQF3uokC3NbtXybGHIBc-1" value="" style="endArrow=none;dashed=1;html=1;rounded=0;entryX=0.5;entryY=0.5;entryDx=0;entryDy=0;entryPerimeter=0;" edge="1" parent="1" source="uQF3uokC3NbtXybGHIBc-29" target="uQF3uokC3NbtXybGHIBc-2">
          <mxGeometry width="50" height="50" relative="1" as="geometry">
            <mxPoint x="496.74" y="550" as="sourcePoint" />
            <mxPoint x="496.74" y="230" as="targetPoint" />
          </mxGeometry>
        </mxCell>
        <mxCell id="uQF3uokC3NbtXybGHIBc-2" value="Customer" style="shape=umlActor;verticalLabelPosition=bottom;verticalAlign=top;html=1;outlineConnect=0;" vertex="1" parent="1">
          <mxGeometry x="476.74" y="120" width="30" height="60" as="geometry" />
        </mxCell>
        <mxCell id="uQF3uokC3NbtXybGHIBc-3" value="SK Airlines Website" style="shape=umlLifeline;perimeter=lifelinePerimeter;whiteSpace=wrap;html=1;container=0;dropTarget=0;collapsible=0;recursiveResize=0;outlineConnect=0;portConstraint=eastwest;newEdgeStyle={&quot;edgeStyle&quot;:&quot;elbowEdgeStyle&quot;,&quot;elbow&quot;:&quot;vertical&quot;,&quot;curved&quot;:0,&quot;rounded&quot;:0};" vertex="1" parent="1">
          <mxGeometry x="601.74" y="100" width="100" height="900" as="geometry" />
        </mxCell>
        <mxCell id="uQF3uokC3NbtXybGHIBc-4" value="" style="html=1;points=[];perimeter=orthogonalPerimeter;outlineConnect=0;targetShapes=umlLifeline;portConstraint=eastwest;newEdgeStyle={&quot;edgeStyle&quot;:&quot;elbowEdgeStyle&quot;,&quot;elbow&quot;:&quot;vertical&quot;,&quot;curved&quot;:0,&quot;rounded&quot;:0};" vertex="1" parent="uQF3uokC3NbtXybGHIBc-3">
          <mxGeometry x="45" y="80" width="10" height="820" as="geometry" />
        </mxCell>
        <mxCell id="uQF3uokC3NbtXybGHIBc-5" value="Credentials Authenticator" style="shape=umlLifeline;perimeter=lifelinePerimeter;whiteSpace=wrap;html=1;container=0;dropTarget=0;collapsible=0;recursiveResize=0;outlineConnect=0;portConstraint=eastwest;newEdgeStyle={&quot;edgeStyle&quot;:&quot;elbowEdgeStyle&quot;,&quot;elbow&quot;:&quot;vertical&quot;,&quot;curved&quot;:0,&quot;rounded&quot;:0};" vertex="1" parent="1">
          <mxGeometry x="751.74" y="100" width="100" height="300" as="geometry" />
        </mxCell>
        <mxCell id="uQF3uokC3NbtXybGHIBc-6" value="" style="html=1;points=[];perimeter=orthogonalPerimeter;outlineConnect=0;targetShapes=umlLifeline;portConstraint=eastwest;newEdgeStyle={&quot;edgeStyle&quot;:&quot;elbowEdgeStyle&quot;,&quot;elbow&quot;:&quot;vertical&quot;,&quot;curved&quot;:0,&quot;rounded&quot;:0};" vertex="1" parent="uQF3uokC3NbtXybGHIBc-5">
          <mxGeometry x="45" y="115" width="10" height="165" as="geometry" />
        </mxCell>
        <mxCell id="uQF3uokC3NbtXybGHIBc-7" value="Flight Tracker API" style="shape=umlLifeline;perimeter=lifelinePerimeter;whiteSpace=wrap;html=1;container=0;dropTarget=0;collapsible=0;recursiveResize=0;outlineConnect=0;portConstraint=eastwest;newEdgeStyle={&quot;edgeStyle&quot;:&quot;elbowEdgeStyle&quot;,&quot;elbow&quot;:&quot;vertical&quot;,&quot;curved&quot;:0,&quot;rounded&quot;:0};" vertex="1" parent="1">
          <mxGeometry x="916.74" y="100" width="100" height="460" as="geometry" />
        </mxCell>
        <mxCell id="uQF3uokC3NbtXybGHIBc-8" value="" style="html=1;points=[];perimeter=orthogonalPerimeter;outlineConnect=0;targetShapes=umlLifeline;portConstraint=eastwest;newEdgeStyle={&quot;edgeStyle&quot;:&quot;elbowEdgeStyle&quot;,&quot;elbow&quot;:&quot;vertical&quot;,&quot;curved&quot;:0,&quot;rounded&quot;:0};" vertex="1" parent="uQF3uokC3NbtXybGHIBc-7">
          <mxGeometry x="45" y="320" width="10" height="100" as="geometry" />
        </mxCell>
        <mxCell id="uQF3uokC3NbtXybGHIBc-9" value="" style="endArrow=classic;html=1;rounded=0;" edge="1" parent="1">
          <mxGeometry width="50" height="50" relative="1" as="geometry">
            <mxPoint x="496.74" y="220" as="sourcePoint" />
            <mxPoint x="646.74" y="220" as="targetPoint" />
          </mxGeometry>
        </mxCell>
        <mxCell id="uQF3uokC3NbtXybGHIBc-10" value="Input Login Credentials" style="edgeLabel;html=1;align=center;verticalAlign=middle;resizable=0;points=[];" vertex="1" connectable="0" parent="uQF3uokC3NbtXybGHIBc-9">
          <mxGeometry x="0.3389" y="-2" relative="1" as="geometry">
            <mxPoint x="-33" y="8" as="offset" />
          </mxGeometry>
        </mxCell>
        <mxCell id="uQF3uokC3NbtXybGHIBc-11" value="" style="endArrow=classic;html=1;rounded=0;" edge="1" parent="1" target="uQF3uokC3NbtXybGHIBc-6">
          <mxGeometry width="50" height="50" relative="1" as="geometry">
            <mxPoint x="656.74" y="240" as="sourcePoint" />
            <mxPoint x="806.74" y="240" as="targetPoint" />
          </mxGeometry>
        </mxCell>
        <mxCell id="uQF3uokC3NbtXybGHIBc-12" value="Validate Credentials" style="edgeLabel;html=1;align=center;verticalAlign=middle;resizable=0;points=[];" vertex="1" connectable="0" parent="uQF3uokC3NbtXybGHIBc-11">
          <mxGeometry x="0.3389" y="-2" relative="1" as="geometry">
            <mxPoint x="-33" y="8" as="offset" />
          </mxGeometry>
        </mxCell>
        <mxCell id="uQF3uokC3NbtXybGHIBc-13" value="" style="endArrow=classic;html=1;rounded=0;dashed=1;" edge="1" parent="1">
          <mxGeometry width="50" height="50" relative="1" as="geometry">
            <mxPoint x="796.74" y="280" as="sourcePoint" />
            <mxPoint x="656.74" y="280" as="targetPoint" />
          </mxGeometry>
        </mxCell>
        <mxCell id="uQF3uokC3NbtXybGHIBc-14" value="Valid Credentials" style="edgeLabel;html=1;align=center;verticalAlign=middle;resizable=0;points=[];" vertex="1" connectable="0" parent="uQF3uokC3NbtXybGHIBc-13">
          <mxGeometry x="0.3389" y="-2" relative="1" as="geometry">
            <mxPoint x="24" y="12" as="offset" />
          </mxGeometry>
        </mxCell>
        <mxCell id="uQF3uokC3NbtXybGHIBc-15" value="" style="endArrow=none;dashed=1;html=1;rounded=0;exitX=-0.004;exitY=0.484;exitDx=0;exitDy=0;exitPerimeter=0;entryX=1.003;entryY=0.597;entryDx=0;entryDy=0;entryPerimeter=0;" edge="1" parent="1" source="uQF3uokC3NbtXybGHIBc-30">
          <mxGeometry width="50" height="50" relative="1" as="geometry">
            <mxPoint x="456.7400000000001" y="337.89999999999986" as="sourcePoint" />
            <mxPoint x="828.9599999999998" y="342.0999999999999" as="targetPoint" />
          </mxGeometry>
        </mxCell>
        <mxCell id="uQF3uokC3NbtXybGHIBc-16" value="" style="endArrow=classic;html=1;rounded=0;" edge="1" parent="1">
          <mxGeometry width="50" height="50" relative="1" as="geometry">
            <mxPoint x="646.74" y="310" as="sourcePoint" />
            <mxPoint x="496.74" y="310" as="targetPoint" />
          </mxGeometry>
        </mxCell>
        <mxCell id="uQF3uokC3NbtXybGHIBc-17" value="Redirect to user dashboard" style="edgeLabel;html=1;align=center;verticalAlign=middle;resizable=0;points=[];" vertex="1" connectable="0" parent="uQF3uokC3NbtXybGHIBc-16">
          <mxGeometry x="0.3389" y="-2" relative="1" as="geometry">
            <mxPoint x="24" y="12" as="offset" />
          </mxGeometry>
        </mxCell>
        <mxCell id="uQF3uokC3NbtXybGHIBc-18" value="" style="endArrow=classic;html=1;rounded=0;dashed=1;" edge="1" parent="1">
          <mxGeometry width="50" height="50" relative="1" as="geometry">
            <mxPoint x="796.74" y="350" as="sourcePoint" />
            <mxPoint x="656.74" y="350" as="targetPoint" />
          </mxGeometry>
        </mxCell>
        <mxCell id="uQF3uokC3NbtXybGHIBc-19" value="Invalid Credentials" style="edgeLabel;html=1;align=center;verticalAlign=middle;resizable=0;points=[];" vertex="1" connectable="0" parent="uQF3uokC3NbtXybGHIBc-18">
          <mxGeometry x="0.3389" y="-2" relative="1" as="geometry">
            <mxPoint x="24" y="12" as="offset" />
          </mxGeometry>
        </mxCell>
        <mxCell id="uQF3uokC3NbtXybGHIBc-20" value="" style="endArrow=classic;html=1;rounded=0;" edge="1" parent="1">
          <mxGeometry width="50" height="50" relative="1" as="geometry">
            <mxPoint x="496.74" y="450" as="sourcePoint" />
            <mxPoint x="646.74" y="450" as="targetPoint" />
          </mxGeometry>
        </mxCell>
        <mxCell id="uQF3uokC3NbtXybGHIBc-21" value="Clicks Current Flight" style="edgeLabel;html=1;align=center;verticalAlign=middle;resizable=0;points=[];" vertex="1" connectable="0" parent="uQF3uokC3NbtXybGHIBc-20">
          <mxGeometry x="0.3389" y="-2" relative="1" as="geometry">
            <mxPoint x="-33" y="8" as="offset" />
          </mxGeometry>
        </mxCell>
        <mxCell id="uQF3uokC3NbtXybGHIBc-22" value="" style="endArrow=classic;html=1;rounded=0;" edge="1" parent="1">
          <mxGeometry width="50" height="50" relative="1" as="geometry">
            <mxPoint x="656.74" y="470" as="sourcePoint" />
            <mxPoint x="956.74" y="470" as="targetPoint" />
          </mxGeometry>
        </mxCell>
        <mxCell id="uQF3uokC3NbtXybGHIBc-23" value="Retrieves Customer Flight Details" style="edgeLabel;html=1;align=center;verticalAlign=middle;resizable=0;points=[];" vertex="1" connectable="0" parent="uQF3uokC3NbtXybGHIBc-22">
          <mxGeometry x="0.3389" y="-2" relative="1" as="geometry">
            <mxPoint x="-33" y="8" as="offset" />
          </mxGeometry>
        </mxCell>
        <mxCell id="uQF3uokC3NbtXybGHIBc-24" value="" style="endArrow=classic;html=1;rounded=0;" edge="1" parent="1">
          <mxGeometry width="50" height="50" relative="1" as="geometry">
            <mxPoint x="961.74" y="500" as="sourcePoint" />
            <mxPoint x="656.74" y="500" as="targetPoint" />
          </mxGeometry>
        </mxCell>
        <mxCell id="uQF3uokC3NbtXybGHIBc-25" value="Returns Customer Flight Details" style="edgeLabel;html=1;align=center;verticalAlign=middle;resizable=0;points=[];" vertex="1" connectable="0" parent="uQF3uokC3NbtXybGHIBc-24">
          <mxGeometry x="0.3389" y="-2" relative="1" as="geometry">
            <mxPoint x="69" y="12" as="offset" />
          </mxGeometry>
        </mxCell>
        <mxCell id="uQF3uokC3NbtXybGHIBc-26" value="" style="endArrow=classic;html=1;rounded=0;dashed=1;" edge="1" parent="1">
          <mxGeometry width="50" height="50" relative="1" as="geometry">
            <mxPoint x="646.74" y="520" as="sourcePoint" />
            <mxPoint x="506.74" y="520" as="targetPoint" />
          </mxGeometry>
        </mxCell>
        <mxCell id="uQF3uokC3NbtXybGHIBc-27" value="Display Flight Schedule" style="edgeLabel;html=1;align=center;verticalAlign=middle;resizable=0;points=[];" vertex="1" connectable="0" parent="uQF3uokC3NbtXybGHIBc-26">
          <mxGeometry x="0.3389" y="-2" relative="1" as="geometry">
            <mxPoint x="24" y="12" as="offset" />
          </mxGeometry>
        </mxCell>
        <mxCell id="uQF3uokC3NbtXybGHIBc-28" value="" style="endArrow=none;dashed=1;html=1;rounded=0;entryX=0.5;entryY=0.5;entryDx=0;entryDy=0;entryPerimeter=0;" edge="1" parent="1" target="uQF3uokC3NbtXybGHIBc-29">
          <mxGeometry width="50" height="50" relative="1" as="geometry">
            <mxPoint x="491.74" y="690" as="sourcePoint" />
            <mxPoint x="496.74" y="150" as="targetPoint" />
          </mxGeometry>
        </mxCell>
        <mxCell id="uQF3uokC3NbtXybGHIBc-29" value="" style="rounded=0;whiteSpace=wrap;html=1;" vertex="1" parent="1">
          <mxGeometry x="486.74" y="200" width="10" height="800" as="geometry" />
        </mxCell>
        <mxCell id="uQF3uokC3NbtXybGHIBc-30" value="Alternative" style="shape=umlFrame;whiteSpace=wrap;html=1;pointerEvents=0;" vertex="1" parent="1">
          <mxGeometry x="391.74" y="270" width="435" height="140" as="geometry" />
        </mxCell>
        <mxCell id="uQF3uokC3NbtXybGHIBc-31" value="" style="endArrow=classic;html=1;rounded=0;" edge="1" parent="1">
          <mxGeometry width="50" height="50" relative="1" as="geometry">
            <mxPoint x="496.74" y="570" as="sourcePoint" />
            <mxPoint x="646.74" y="570" as="targetPoint" />
          </mxGeometry>
        </mxCell>
        <mxCell id="uQF3uokC3NbtXybGHIBc-32" value="Clicks Edit Flight" style="edgeLabel;html=1;align=center;verticalAlign=middle;resizable=0;points=[];" vertex="1" connectable="0" parent="uQF3uokC3NbtXybGHIBc-31">
          <mxGeometry x="0.3389" y="-2" relative="1" as="geometry">
            <mxPoint x="-33" y="8" as="offset" />
          </mxGeometry>
        </mxCell>
        <mxCell id="uQF3uokC3NbtXybGHIBc-33" value="Database" style="shape=umlLifeline;perimeter=lifelinePerimeter;whiteSpace=wrap;html=1;container=0;dropTarget=0;collapsible=0;recursiveResize=0;outlineConnect=0;portConstraint=eastwest;newEdgeStyle={&quot;edgeStyle&quot;:&quot;elbowEdgeStyle&quot;,&quot;elbow&quot;:&quot;vertical&quot;,&quot;curved&quot;:0,&quot;rounded&quot;:0};" vertex="1" parent="1">
          <mxGeometry x="1256.74" y="100" width="100" height="720" as="geometry" />
        </mxCell>
        <mxCell id="uQF3uokC3NbtXybGHIBc-34" value="" style="endArrow=classic;html=1;rounded=0;dashed=1;" edge="1" parent="1">
          <mxGeometry width="50" height="50" relative="1" as="geometry">
            <mxPoint x="646.74" y="610" as="sourcePoint" />
            <mxPoint x="506.74" y="610" as="targetPoint" />
          </mxGeometry>
        </mxCell>
        <mxCell id="uQF3uokC3NbtXybGHIBc-35" value="Prompts Configurable&lt;br&gt;Flight Details" style="edgeLabel;html=1;align=center;verticalAlign=middle;resizable=0;points=[];" vertex="1" connectable="0" parent="uQF3uokC3NbtXybGHIBc-34">
          <mxGeometry x="0.3389" y="-2" relative="1" as="geometry">
            <mxPoint x="24" y="22" as="offset" />
          </mxGeometry>
        </mxCell>
        <mxCell id="uQF3uokC3NbtXybGHIBc-36" value="" style="endArrow=classic;html=1;rounded=0;" edge="1" parent="1">
          <mxGeometry width="50" height="50" relative="1" as="geometry">
            <mxPoint x="496.74" y="660" as="sourcePoint" />
            <mxPoint x="646.74" y="660" as="targetPoint" />
          </mxGeometry>
        </mxCell>
        <mxCell id="uQF3uokC3NbtXybGHIBc-37" value="Inputs New Flight&lt;br&gt;Details" style="edgeLabel;html=1;align=center;verticalAlign=middle;resizable=0;points=[];" vertex="1" connectable="0" parent="uQF3uokC3NbtXybGHIBc-36">
          <mxGeometry x="0.3389" y="-2" relative="1" as="geometry">
            <mxPoint x="-25" y="18" as="offset" />
          </mxGeometry>
        </mxCell>
        <mxCell id="uQF3uokC3NbtXybGHIBc-38" value="" style="endArrow=classic;html=1;rounded=0;" edge="1" parent="1">
          <mxGeometry width="50" height="50" relative="1" as="geometry">
            <mxPoint x="656.74" y="750" as="sourcePoint" />
            <mxPoint x="1136.24" y="750" as="targetPoint" />
          </mxGeometry>
        </mxCell>
        <mxCell id="uQF3uokC3NbtXybGHIBc-39" value="Pay Flight Changes Fee" style="edgeLabel;html=1;align=center;verticalAlign=middle;resizable=0;points=[];" vertex="1" connectable="0" parent="uQF3uokC3NbtXybGHIBc-38">
          <mxGeometry x="0.3389" y="-2" relative="1" as="geometry">
            <mxPoint x="-81" y="8" as="offset" />
          </mxGeometry>
        </mxCell>
        <mxCell id="uQF3uokC3NbtXybGHIBc-40" value="Payment Processing API" style="shape=umlLifeline;perimeter=lifelinePerimeter;whiteSpace=wrap;html=1;container=0;dropTarget=0;collapsible=0;recursiveResize=0;outlineConnect=0;portConstraint=eastwest;newEdgeStyle={&quot;edgeStyle&quot;:&quot;elbowEdgeStyle&quot;,&quot;elbow&quot;:&quot;vertical&quot;,&quot;curved&quot;:0,&quot;rounded&quot;:0};" vertex="1" parent="1">
          <mxGeometry x="1086.74" y="100" width="100" height="780" as="geometry" />
        </mxCell>
        <mxCell id="uQF3uokC3NbtXybGHIBc-41" value="" style="html=1;points=[];perimeter=orthogonalPerimeter;outlineConnect=0;targetShapes=umlLifeline;portConstraint=eastwest;newEdgeStyle={&quot;edgeStyle&quot;:&quot;elbowEdgeStyle&quot;,&quot;elbow&quot;:&quot;vertical&quot;,&quot;curved&quot;:0,&quot;rounded&quot;:0};" vertex="1" parent="uQF3uokC3NbtXybGHIBc-40">
          <mxGeometry x="45" y="540" width="10" height="240" as="geometry" />
        </mxCell>
        <mxCell id="uQF3uokC3NbtXybGHIBc-44" value="" style="html=1;points=[];perimeter=orthogonalPerimeter;outlineConnect=0;targetShapes=umlLifeline;portConstraint=eastwest;newEdgeStyle={&quot;edgeStyle&quot;:&quot;elbowEdgeStyle&quot;,&quot;elbow&quot;:&quot;vertical&quot;,&quot;curved&quot;:0,&quot;rounded&quot;:0};" vertex="1" parent="1">
          <mxGeometry x="1301.74" y="760" width="10" height="50" as="geometry" />
        </mxCell>
        <mxCell id="uQF3uokC3NbtXybGHIBc-49" value="" style="endArrow=classic;html=1;rounded=0;" edge="1" parent="1" source="uQF3uokC3NbtXybGHIBc-4">
          <mxGeometry width="50" height="50" relative="1" as="geometry">
            <mxPoint x="639.24" y="930" as="sourcePoint" />
            <mxPoint x="499.24" y="930" as="targetPoint" />
          </mxGeometry>
        </mxCell>
        <mxCell id="uQF3uokC3NbtXybGHIBc-50" value="Send Flight&lt;br&gt;Changes Email" style="edgeLabel;html=1;align=center;verticalAlign=middle;resizable=0;points=[];" vertex="1" connectable="0" parent="uQF3uokC3NbtXybGHIBc-49">
          <mxGeometry x="0.3389" y="-2" relative="1" as="geometry">
            <mxPoint x="24" y="22" as="offset" />
          </mxGeometry>
        </mxCell>
        <mxCell id="uQF3uokC3NbtXybGHIBc-51" value="Alternative" style="shape=umlFrame;whiteSpace=wrap;html=1;pointerEvents=0;" vertex="1" parent="1">
          <mxGeometry x="571.74" y="770" width="770" height="140" as="geometry" />
        </mxCell>
        <mxCell id="uQF3uokC3NbtXybGHIBc-53" value="" style="endArrow=classic;html=1;rounded=0;" edge="1" parent="1">
          <mxGeometry width="50" height="50" relative="1" as="geometry">
            <mxPoint x="1141.74" y="780" as="sourcePoint" />
            <mxPoint x="1301.74" y="780" as="targetPoint" />
          </mxGeometry>
        </mxCell>
        <mxCell id="uQF3uokC3NbtXybGHIBc-54" value="Update Flight Details" style="edgeLabel;html=1;align=center;verticalAlign=middle;resizable=0;points=[];" vertex="1" connectable="0" parent="uQF3uokC3NbtXybGHIBc-53">
          <mxGeometry x="0.3389" y="-2" relative="1" as="geometry">
            <mxPoint x="-33" y="8" as="offset" />
          </mxGeometry>
        </mxCell>
        <mxCell id="uQF3uokC3NbtXybGHIBc-55" value="" style="endArrow=none;dashed=1;html=1;rounded=0;exitX=-0.002;exitY=0.553;exitDx=0;exitDy=0;exitPerimeter=0;entryX=1;entryY=0.557;entryDx=0;entryDy=0;entryPerimeter=0;" edge="1" parent="1" source="uQF3uokC3NbtXybGHIBc-51" target="uQF3uokC3NbtXybGHIBc-51">
          <mxGeometry width="50" height="50" relative="1" as="geometry">
            <mxPoint x="814.5200000000001" y="789.9999999999999" as="sourcePoint" />
            <mxPoint x="1186.7399999999998" y="794.1999999999999" as="targetPoint" />
          </mxGeometry>
        </mxCell>
        <mxCell id="uQF3uokC3NbtXybGHIBc-56" value="" style="endArrow=classic;html=1;rounded=0;dashed=1;dashPattern=8 8;" edge="1" parent="1">
          <mxGeometry width="50" height="50" relative="1" as="geometry">
            <mxPoint x="1301.74" y="800" as="sourcePoint" />
            <mxPoint x="656.74" y="800" as="targetPoint" />
          </mxGeometry>
        </mxCell>
        <mxCell id="uQF3uokC3NbtXybGHIBc-57" value="Display Flight Is Updated" style="edgeLabel;html=1;align=center;verticalAlign=middle;resizable=0;points=[];" vertex="1" connectable="0" parent="uQF3uokC3NbtXybGHIBc-56">
          <mxGeometry x="0.3389" y="-2" relative="1" as="geometry">
            <mxPoint x="24" y="12" as="offset" />
          </mxGeometry>
        </mxCell>
        <mxCell id="uQF3uokC3NbtXybGHIBc-58" value="If Payment&lt;br&gt;is completed" style="text;html=1;strokeColor=none;fillColor=none;align=center;verticalAlign=middle;whiteSpace=wrap;rounded=0;" vertex="1" parent="1">
          <mxGeometry x="579.24" y="810" width="60" height="30" as="geometry" />
        </mxCell>
        <mxCell id="uQF3uokC3NbtXybGHIBc-59" value="ELSE" style="text;html=1;strokeColor=none;fillColor=none;align=center;verticalAlign=middle;whiteSpace=wrap;rounded=0;" vertex="1" parent="1">
          <mxGeometry x="579.24" y="850" width="60" height="30" as="geometry" />
        </mxCell>
        <mxCell id="uQF3uokC3NbtXybGHIBc-60" value="" style="endArrow=classic;html=1;rounded=0;dashed=1;" edge="1" parent="1">
          <mxGeometry width="50" height="50" relative="1" as="geometry">
            <mxPoint x="1131.74" y="870" as="sourcePoint" />
            <mxPoint x="656.74" y="870" as="targetPoint" />
          </mxGeometry>
        </mxCell>
        <mxCell id="uQF3uokC3NbtXybGHIBc-61" value="Payment Transaction Failed" style="edgeLabel;html=1;align=center;verticalAlign=middle;resizable=0;points=[];" vertex="1" connectable="0" parent="uQF3uokC3NbtXybGHIBc-60">
          <mxGeometry x="0.3389" y="-2" relative="1" as="geometry">
            <mxPoint x="78" y="12" as="offset" />
          </mxGeometry>
        </mxCell>
        <mxCell id="uQF3uokC3NbtXybGHIBc-62" value="Are Credentials Valid?" style="text;html=1;strokeColor=none;fillColor=none;align=center;verticalAlign=middle;whiteSpace=wrap;rounded=0;" vertex="1" parent="1">
          <mxGeometry x="391.74" y="300" width="90" height="30" as="geometry" />
        </mxCell>
        <mxCell id="uQF3uokC3NbtXybGHIBc-63" value="ELSE" style="text;html=1;strokeColor=none;fillColor=none;align=center;verticalAlign=middle;whiteSpace=wrap;rounded=0;" vertex="1" parent="1">
          <mxGeometry x="391.74" y="340" width="90" height="30" as="geometry" />
        </mxCell>
        <mxCell id="uQF3uokC3NbtXybGHIBc-66" value="" style="endArrow=classic;html=1;rounded=0;entryX=1.5;entryY=0.718;entryDx=0;entryDy=0;entryPerimeter=0;dashed=1;" edge="1" parent="1">
          <mxGeometry width="50" height="50" relative="1" as="geometry">
            <mxPoint x="646.74" y="700.22" as="sourcePoint" />
            <mxPoint x="496.74" y="700" as="targetPoint" />
          </mxGeometry>
        </mxCell>
        <mxCell id="uQF3uokC3NbtXybGHIBc-67" value="Request Confirmation&lt;br&gt;For Changes" style="edgeLabel;html=1;align=center;verticalAlign=middle;resizable=0;points=[];" vertex="1" connectable="0" parent="uQF3uokC3NbtXybGHIBc-66">
          <mxGeometry x="0.3389" y="-2" relative="1" as="geometry">
            <mxPoint x="26" y="22" as="offset" />
          </mxGeometry>
        </mxCell>
        <mxCell id="uQF3uokC3NbtXybGHIBc-70" value="" style="endArrow=classic;html=1;rounded=0;" edge="1" parent="1">
          <mxGeometry width="50" height="50" relative="1" as="geometry">
            <mxPoint x="496.74" y="740" as="sourcePoint" />
            <mxPoint x="646.74" y="740" as="targetPoint" />
          </mxGeometry>
        </mxCell>
        <mxCell id="uQF3uokC3NbtXybGHIBc-71" value="Confirm Changes" style="edgeLabel;html=1;align=center;verticalAlign=middle;resizable=0;points=[];" vertex="1" connectable="0" parent="uQF3uokC3NbtXybGHIBc-70">
          <mxGeometry x="0.3389" y="-2" relative="1" as="geometry">
            <mxPoint x="-17" y="8" as="offset" />
          </mxGeometry>
        </mxCell>
      </root>
    </mxGraphModel>
  </diagram>
</mxfile>
